<svg width="372" height="597" viewBox="0 0 372 597" fill="none" xmlns="http://www.w3.org/2000/svg">
<path d="M482.013 34.799C468.161 -0.519628 412.773 -11.2456 359.368 15.3344C305.962 41.9144 260.171 58.5349 170.126 53.3561C80.0802 48.1773 22.9302 118.371 24.0687 189.764C25.2073 261.157 11.7518 335.264 1.62665 416.069C-7.52752 488.924 60.5515 615.634 225.747 594.226C390.942 572.817 454.285 537.852 534.775 553.281C615.266 568.711 686.319 554.339 726.64 500.48C766.961 446.621 753.069 308.8 651.156 295.204C549.242 281.608 473.949 246.14 469.594 176.353C466.339 124.457 508.549 102.471 482.021 34.8471L482.013 34.799Z" fill="url(#paint0_linear_784_8587)"/>
<defs>
<linearGradient id="paint0_linear_784_8587" x1="-11.3086" y1="371.624" x2="718.276" y2="243.376" gradientUnits="userSpaceOnUse">
<stop stop-color="#D1BFE8"/>
<stop offset="0.33" stop-color="#CEC3EA"/>
<stop offset="0.67" stop-color="#C7CFF2"/>
<stop offset="1" stop-color="#BDE3FF"/>
</linearGradient>
</defs>
</svg>
