<svg width="720" height="762" viewBox="0 0 720 762" fill="none" xmlns="http://www.w3.org/2000/svg">
<path d="M715.857 104.275L715.858 104.275C803.102 127.678 861.05 165.249 892.395 216.4C923.734 267.542 928.638 332.518 909.236 411.079C888.987 493.17 861.836 528.788 825.395 551.45C807.105 562.824 786.427 570.965 762.92 580.041C762.029 580.385 761.135 580.731 760.236 581.077C737.442 589.873 712.077 599.66 683.915 614.13C663.659 624.539 642.595 638.617 620.229 653.91C617.619 655.695 614.991 657.496 612.344 659.311C592.289 673.058 571.15 687.548 548.518 701.15C497.294 731.937 438.53 758.106 367.833 760.594C332.573 761.835 306.665 753.777 285.618 740.134C264.535 726.468 248.249 707.149 232.313 685.705C228.108 680.048 223.929 674.243 219.695 668.361C191.882 629.727 161.656 587.741 105.881 562.113C-21.2354 503.706 -17.6961 385.809 38.403 340.303C52.836 328.595 64.1679 312.53 74.0464 293.894C83.9236 275.26 92.3883 253.975 101.042 231.789C101.656 230.213 102.272 228.632 102.889 227.048C119.676 183.954 137.614 137.904 168.292 100.73C231.89 23.7165 320.872 -8.38335 441.291 3.78842C502.87 10.0134 547.529 28.6579 588.769 48.9876C596.76 52.9264 604.628 56.9322 612.47 60.9248C645.076 77.5257 677.235 93.8983 715.857 104.275Z" stroke="url(#paint0_linear_784_8586)" stroke-width="2.5611"/>
<defs>
<linearGradient id="paint0_linear_784_8586" x1="0" y1="381" x2="922" y2="381" gradientUnits="userSpaceOnUse">
<stop stop-color="#FFDD58"/>
<stop offset="1" stop-color="#D1BFE8"/>
</linearGradient>
</defs>
</svg>
