<svg width="22" height="28" viewBox="0 0 22 28" fill="none" xmlns="http://www.w3.org/2000/svg">
<path d="M8.24665 1.57769C8.24665 1.57769 6.22164 0.00267967 3.74662 1.57769C1.1216 3.3027 -0.528406 7.65273 3.14662 11.6278C5.62164 14.3278 5.84664 15.9028 5.02163 16.8028C3.82162 18.0778 1.72161 16.8778 0.4466 18.9778C-1.20341 21.6778 2.02161 24.3028 5.17163 24.0028C8.32165 23.7028 13.7217 22.3528 13.7217 22.3528V17.7778L8.24665 1.57769Z" fill="url(#paint0_linear_1092_11878)"/>
<path d="M18.5972 22.6535C18.5222 23.9286 19.5723 25.9537 18.5972 26.7037C17.6222 27.5287 16.7972 26.3287 15.7471 25.5036C14.6971 24.6036 11.472 23.6286 8.47184 25.5786C5.47173 27.5287 3.22164 27.6037 1.79658 25.8787C0.0715146 23.7036 1.64658 21.0035 3.74666 20.1034C5.84674 19.2034 8.92186 19.8784 10.1219 20.5534C11.322 21.2285 12.522 21.1535 12.597 19.8784C12.672 18.6034 9.8969 16.6533 8.62185 15.3032C7.3468 13.9532 4.7967 10.128 5.02171 5.85287C5.24672 1.57771 7.4968 0.0776462 9.22187 0.0026433C10.9469 -0.0723596 14.6221 1.4277 14.8471 7.20292C15.0721 12.9782 14.3221 15.3032 15.1471 16.4283C15.9721 17.5533 17.4722 16.6533 17.3972 14.7032C17.3222 12.7531 16.5722 10.203 18.2222 9.078C19.8723 7.95295 22.6474 10.6531 21.4474 15.2282C20.2473 19.8034 18.7472 20.2534 18.5972 22.6535Z" fill="url(#paint1_linear_1092_11878)"/>
<defs>
<linearGradient id="paint0_linear_1092_11878" x1="6.86087" y1="24.0263" x2="6.86087" y2="0.87771" gradientUnits="userSpaceOnUse">
<stop stop-color="#C0E2FF"/>
<stop offset="0.338" stop-color="#D4D6FF"/>
<stop offset="0.6749" stop-color="#E1CEFF"/>
<stop offset="1" stop-color="#E5CCFF"/>
</linearGradient>
<linearGradient id="paint1_linear_1092_11878" x1="0.664187" y1="7.12185" x2="19.4305" y2="25.8882" gradientUnits="userSpaceOnUse">
<stop stop-color="#6B32B5"/>
<stop offset="0.192" stop-color="#6736B8"/>
<stop offset="0.391" stop-color="#5C43C1"/>
<stop offset="0.5932" stop-color="#4957D0"/>
<stop offset="0.7966" stop-color="#2F74E5"/>
<stop offset="1" stop-color="#0D99FF"/>
</linearGradient>
</defs>
</svg>
