<svg width="42" height="42" viewBox="0 0 42 42" fill="none" xmlns="http://www.w3.org/2000/svg">
<path d="M29.3513 14.37C29.1513 13.85 28.9013 13.47 28.5113 13.08C28.1213 12.69 27.7413 12.44 27.2213 12.24C26.8213 12.09 26.2313 11.9 25.1313 11.85C23.9413 11.8 23.5913 11.78 20.5913 11.78C17.5913 11.78 17.2313 11.79 16.0513 11.85C14.9513 11.9 14.3613 12.08 13.9613 12.24C13.4413 12.44 13.0613 12.69 12.6713 13.08C12.2813 13.47 12.0313 13.85 11.8313 14.37C11.6813 14.77 11.4913 15.36 11.4413 16.46C11.3913 17.65 11.3713 18 11.3713 21C11.3713 24 11.3813 24.36 11.4413 25.54C11.4913 26.64 11.6713 27.23 11.8313 27.63C12.0313 28.15 12.2813 28.53 12.6713 28.92C13.0613 29.31 13.4413 29.56 13.9613 29.76C14.3613 29.91 14.9513 30.1 16.0513 30.15C17.2413 30.2 17.5913 30.22 20.5913 30.22C23.5913 30.22 23.9513 30.21 25.1313 30.15C26.2313 30.1 26.8213 29.92 27.2213 29.76C27.7413 29.56 28.1213 29.31 28.5113 28.92C28.9013 28.53 29.1513 28.15 29.3513 27.63C29.5013 27.23 29.6913 26.64 29.7413 25.54C29.7913 24.35 29.8113 24 29.8113 21C29.8113 18 29.8013 17.64 29.7413 16.46C29.6913 15.36 29.5113 14.77 29.3513 14.37ZM20.5913 26.77C17.4013 26.77 14.8213 24.19 14.8213 21C14.8213 17.81 17.4013 15.23 20.5913 15.23C23.7813 15.23 26.3613 17.81 26.3613 21C26.3613 24.19 23.7813 26.77 20.5913 26.77ZM26.5913 16.35C25.8513 16.35 25.2413 15.75 25.2413 15C25.2413 14.25 25.8413 13.65 26.5913 13.65C27.3413 13.65 27.9413 14.25 27.9413 15C27.9413 15.75 27.3413 16.35 26.5913 16.35Z" fill="white"/>
<path d="M20.5913 0.5C9.27131 0.5 0.0913086 9.68 0.0913086 21C0.0913086 32.32 9.27131 41.5 20.5913 41.5C31.9113 41.5 41.0913 32.32 41.0913 21C41.0913 9.68 31.9113 0.5 20.5913 0.5ZM31.7613 25.63C31.7113 26.83 31.5213 27.64 31.2413 28.36C30.9513 29.1 30.5713 29.73 29.9413 30.35C29.3213 30.97 28.6913 31.36 27.9513 31.65C27.2413 31.93 26.4213 32.12 25.2213 32.17C24.0213 32.22 23.6413 32.24 20.5913 32.24C17.5413 32.24 17.1513 32.23 15.9613 32.17C14.7613 32.12 13.9513 31.93 13.2313 31.65C12.4913 31.36 11.8613 30.98 11.2413 30.35C10.6213 29.73 10.2313 29.1 9.94131 28.36C9.66131 27.65 9.47131 26.83 9.42131 25.63C9.37131 24.43 9.35131 24.05 9.35131 21C9.35131 17.95 9.36131 17.56 9.42131 16.37C9.47131 15.17 9.66131 14.36 9.94131 13.64C10.2313 12.9 10.6113 12.27 11.2413 11.65C11.8613 11.03 12.4913 10.64 13.2313 10.35C13.9413 10.07 14.7613 9.88 15.9613 9.83C17.1613 9.78 17.5413 9.76 20.5913 9.76C23.6413 9.76 24.0313 9.77 25.2213 9.83C26.4213 9.88 27.2313 10.07 27.9513 10.35C28.6913 10.64 29.3213 11.02 29.9413 11.65C30.5613 12.27 30.9513 12.9 31.2413 13.64C31.5213 14.35 31.7113 15.17 31.7613 16.37C31.8113 17.57 31.8313 17.95 31.8313 21C31.8313 24.05 31.8213 24.44 31.7613 25.63Z" fill="white"/>
<path d="M20.5913 17.25C18.5213 17.25 16.8413 18.93 16.8413 21C16.8413 23.07 18.5213 24.75 20.5913 24.75C22.6613 24.75 24.3413 23.07 24.3413 21C24.3413 18.93 22.6613 17.25 20.5913 17.25Z" fill="white"/>
</svg>
