<svg width="41" height="42" viewBox="0 0 41 42" fill="none" xmlns="http://www.w3.org/2000/svg">
<path fill-rule="evenodd" clip-rule="evenodd" d="M20.5 41.5C31.8218 41.5 41 32.3218 41 21C41 9.67816 31.8218 0.5 20.5 0.5C9.17816 0.5 0 9.67816 0 21C0 32.3218 9.17816 41.5 20.5 41.5ZM30.9426 13.8229C32.0115 13.6871 33.043 13.4029 34 12.9706C33.2792 14.0453 32.3843 14.9841 31.3403 15.7253C31.3528 15.96 31.3528 16.1824 31.3528 16.4171C31.3528 23.4212 25.9713 31.5 16.1778 31.5C13.1702 31.5 10.3614 30.6229 8 29.1159C8.42256 29.1653 8.84512 29.19 9.26769 29.19C11.6713 29.2015 14.0074 28.4 15.892 26.9171C14.7802 26.8969 13.7027 26.531 12.811 25.8707C11.9193 25.2104 11.2582 24.2889 10.9207 23.2359C11.7162 23.3917 12.5372 23.3621 13.3193 23.1494C10.8834 22.6676 9.04398 20.5182 9.04398 17.9488V17.9118C9.76482 18.2824 10.5851 18.5294 11.4675 18.5294C10.0258 17.6029 9.09369 15.9724 9.09369 14.1318C9.09369 13.1682 9.35468 12.2541 9.81453 11.4759C12.4369 14.6753 16.3767 16.7876 20.8011 17.01C20.7141 16.6271 20.6644 16.2194 20.6644 15.7994C20.6644 12.8718 23.0507 10.5 25.9713 10.5C27.5373 10.5 28.9168 11.1176 29.8987 12.18C31.1042 11.9329 32.2476 11.5006 33.2792 10.8829C32.8815 12.1306 32.0363 13.1682 30.9426 13.8229Z" fill="white"/>
</svg>
