<svg width="171" height="44" viewBox="0 0 140 36" fill="none" xmlns="http://www.w3.org/2000/svg">
<path d="M24.9261 11.7348C24.5283 11.7348 24.1305 11.8343 23.8322 12.0331C21.6443 13.5249 22.5394 16.9061 22.7383 19.4917C22.8377 21.2818 21.8432 22.3757 20.9482 22.3757C20.5504 22.3757 20.1526 22.1768 19.8543 21.779C18.7604 20.2873 19.7548 17.2044 19.4565 9.54696C19.2576 2.18784 14.683 0 12.2963 0C12.1968 0 12.0974 0 12.0974 0C11.1029 0.0994475 10.009 0.497238 9.0145 1.29282C8.71616 1.19337 8.31837 1.19337 7.92058 1.19337C7.02555 1.19337 6.03108 1.39226 4.93716 2.0884C1.45649 4.37569 -0.731353 10.1436 4.14158 15.4144C7.42334 18.9945 7.72169 21.0829 6.62776 22.2762C5.0366 23.9669 2.25207 22.3757 0.561465 25.1602C-0.532458 27.0497 0.064227 28.8398 1.55594 30.1326C1.15815 31.4254 1.2576 32.9171 2.25207 34.1105C3.1471 35.2044 4.24102 35.8011 5.63329 35.8011C7.125 35.8011 9.0145 35.105 11.1029 33.8122C12.7935 32.7182 14.4841 32.3204 16.0753 32.3204C18.2631 32.3204 20.0532 33.116 20.8488 33.7127C21.8432 34.6077 22.7383 35.7017 23.7327 35.7017C24.0311 35.7017 24.3294 35.6022 24.6278 35.3039C25.9206 34.2099 24.5283 31.6243 24.6278 29.9337C24.8267 26.7514 26.6167 26.1547 28.2079 20.0884C29.5007 15.116 27.114 11.7348 24.9261 11.7348ZM1.85428 29.337C1.65539 29.1381 1.45649 28.8398 1.2576 28.5414C0.760359 27.6464 0.76036 26.7514 1.35704 25.8564C2.05318 24.663 2.94821 24.5635 4.14158 24.3646C5.13605 24.2652 6.32942 24.0663 7.22445 23.0718C8.91506 21.2818 8.11948 18.4972 4.73826 14.9171C2.25207 12.232 1.95373 9.74586 2.25207 8.1547C2.55042 6.0663 3.64434 4.27624 5.33495 3.18232C6.13053 2.68508 6.92611 2.38674 7.82113 2.38674C7.92058 2.38674 8.02003 2.38674 8.11948 2.38674C7.22445 3.58011 6.52832 5.37017 6.42887 7.9558C6.22997 13.6243 9.51174 18.6961 11.2024 20.4862C12.893 22.2762 16.5725 24.8619 16.4731 26.5525C16.3736 27.547 15.8764 27.9448 15.0808 27.9448C14.5836 27.9448 13.8874 27.7459 13.1913 27.3481C12.0974 26.6519 10.009 26.0553 7.92058 26.0553C6.82666 26.0553 5.73274 26.2541 4.73826 26.6519C3.54489 27.1492 2.45097 28.1437 1.85428 29.337Z" fill="white"/>
<path d="M39.047 35.7016C38.4503 35.7016 37.9531 35.5027 37.6547 35.2043C37.3564 34.906 37.1575 34.4088 37.1575 33.8121V10.5414C37.1575 9.94467 37.3564 9.44744 37.6547 9.14909C37.9531 8.85075 38.4503 8.65186 39.047 8.65186C39.6437 8.65186 40.1409 8.85075 40.4392 9.14909C40.7376 9.44744 40.9365 9.94467 40.9365 10.5414V33.8121C40.9365 34.4088 40.7376 34.906 40.4392 35.2043C40.0414 35.5027 39.6437 35.7016 39.047 35.7016ZM38.7486 18.9944C38.8481 16.906 39.3453 15.1159 40.3398 13.5248C41.3343 11.9336 42.6271 10.6408 44.1188 9.74578C45.71 8.85075 47.4006 8.35352 49.2901 8.35352C50.7818 8.35352 51.9752 8.55241 52.7707 8.9502C53.5663 9.34799 53.8647 10.0441 53.6658 10.8397C53.5663 11.3369 53.268 11.6353 52.9696 11.8342C52.6713 12.0331 52.2735 12.0331 51.8757 12.0331C51.4779 12.0331 50.8812 11.9336 50.384 11.9336C48.4945 11.7347 46.9033 11.9336 45.5111 12.5303C44.1188 13.0275 42.9254 13.9226 42.1298 15.0165C41.3343 16.1104 40.837 17.5027 40.837 18.9944H38.7486Z" fill="white"/>
<path d="M71.5661 35.9999C69.1794 35.9999 67.091 35.5027 65.3009 34.5082C63.4114 33.5137 62.0191 32.1215 60.9252 30.232C59.8313 28.3425 59.334 26.0552 59.334 23.3701V10.5414C59.334 10.0441 59.5329 9.54688 59.8313 9.24854C60.2291 8.85075 60.6269 8.7513 61.1241 8.7513C61.7208 8.7513 62.1186 8.9502 62.5164 9.24854C62.9142 9.64633 63.0136 10.0441 63.0136 10.5414V23.3701C63.0136 25.4585 63.4114 27.0496 64.207 28.4419C65.0026 29.7347 65.997 30.7292 67.3893 31.4253C68.6821 32.1215 70.2733 32.4198 71.8644 32.4198C73.4556 32.4198 74.9473 32.1215 76.2401 31.5248C77.5329 30.9281 78.5274 30.0331 79.323 28.9391C80.1186 27.8452 80.4169 26.6519 80.4169 25.2596H83.102C83.0026 27.348 82.4059 29.2375 81.4114 30.8287C80.4169 32.4198 79.0247 33.7126 77.2346 34.7071C75.6434 35.5027 73.6545 35.9999 71.5661 35.9999ZM82.4059 35.7016C81.8092 35.7016 81.4114 35.5027 81.0136 35.2043C80.7153 34.906 80.5164 34.4088 80.5164 33.8121V10.5414C80.5164 9.94467 80.7153 9.54688 81.0136 9.14909C81.312 8.85075 81.8092 8.65186 82.4059 8.65186C83.0026 8.65186 83.4003 8.85075 83.7981 9.14909C84.1959 9.44744 84.2954 9.94467 84.2954 10.5414V33.8121C84.2954 34.4088 84.0965 34.906 83.7981 35.2043C83.4003 35.5027 83.0026 35.7016 82.4059 35.7016Z" fill="white"/>
<path d="M91.4562 12.9281C90.959 12.9281 90.5612 12.7292 90.2629 12.4309C89.9645 12.1325 89.7656 11.7347 89.7656 11.2375C89.7656 10.7403 89.9645 10.3425 90.2629 10.0441C90.5612 9.74577 90.959 9.54688 91.4562 9.54688H104.086C104.583 9.54688 104.981 9.74577 105.279 10.0441C105.578 10.3425 105.777 10.7403 105.777 11.2375C105.777 11.7347 105.578 12.1325 105.279 12.4309C104.981 12.7292 104.583 12.9281 104.086 12.9281H91.4562ZM103.788 35.7016C101.998 35.7016 100.506 35.3038 99.1137 34.5082C97.7214 33.7126 96.6275 32.5193 95.8319 31.127C95.0363 29.7347 94.6386 28.0441 94.6386 26.2541V1.98887C94.6386 1.39218 94.8375 0.994393 95.1358 0.596603C95.4341 0.198813 95.9314 0.0993652 96.5281 0.0993652C97.1247 0.0993652 97.5225 0.29826 97.9203 0.596603C98.3181 0.994393 98.4176 1.39218 98.4176 1.98887V26.1546C98.4176 27.8452 98.9148 29.2375 99.9093 30.232C100.904 31.3259 102.197 31.8231 103.688 31.8231H104.981C105.478 31.8231 105.976 32.022 106.274 32.3204C106.572 32.7182 106.771 33.1159 106.771 33.7126C106.771 34.3093 106.572 34.7071 106.174 35.1049C105.777 35.4032 105.279 35.6021 104.683 35.6021H103.788V35.7016Z" fill="white"/>
<path d="M124.969 35.9004C122.384 35.9004 120.196 35.3037 118.108 34.1103C116.119 32.917 114.527 31.2264 113.334 29.2374C112.141 27.149 111.544 24.8617 111.544 22.1766C111.544 19.591 112.141 17.2043 113.334 15.1159C114.527 13.0275 116.218 11.4363 118.207 10.2429C120.295 9.04957 122.583 8.45288 125.268 8.45288C127.853 8.45288 130.24 9.04957 132.229 10.2429C134.318 11.4363 135.909 13.1269 137.102 15.1159C138.295 17.2043 138.892 19.591 138.992 22.1766L137.5 23.37C137.5 25.7568 136.903 27.8451 135.809 29.7347C134.715 31.6242 133.224 33.1159 131.334 34.2098C129.544 35.4032 127.356 35.9004 124.969 35.9004ZM125.367 32.5192C127.257 32.5192 128.947 32.1214 130.439 31.2264C131.931 30.3313 133.124 29.138 134.019 27.5468C134.914 25.9556 135.312 24.265 135.312 22.2761C135.312 20.2871 134.914 18.4971 134.019 17.0054C133.124 15.4142 131.931 14.2208 130.439 13.3258C128.947 12.4308 127.257 11.9335 125.367 11.9335C123.478 11.9335 121.787 12.4308 120.295 13.3258C118.804 14.2208 117.61 15.4142 116.715 17.0054C115.82 18.5965 115.423 20.2871 115.423 22.2761C115.423 24.265 115.82 25.9556 116.715 27.5468C117.61 29.138 118.804 30.3313 120.295 31.2264C121.787 32.0219 123.478 32.5192 125.367 32.5192ZM137.202 35.7015C136.605 35.7015 136.207 35.5026 135.809 35.2043C135.411 34.9059 135.312 34.4087 135.312 33.812V25.359L136.207 21.4805L139.091 22.1766V33.812C139.091 34.4087 138.892 34.8065 138.594 35.2043C138.196 35.5026 137.798 35.7015 137.202 35.7015Z" fill="white"/>
</svg>
