<svg width="171" height="44" viewBox="0 0 171 44" fill="none" xmlns="http://www.w3.org/2000/svg">
<path d="M14.0702 2.56042C14.0702 2.56042 10.7927 0.00418854 6.78692 2.56042C2.53834 5.3601 -0.132201 12.4202 5.81581 18.8716C9.82162 23.2537 10.1858 25.8099 8.85052 27.2706C6.90831 29.34 3.50944 27.3924 1.44584 30.8007C-1.22469 35.1828 3.99499 39.4432 9.09329 38.9563C14.1916 38.4694 22.9315 36.2783 22.9315 36.2783V28.8531L14.0702 2.56042Z" fill="url(#paint0_linear_234_3395)"/>
<path d="M30.8225 36.7665C30.7012 38.8359 32.4006 42.1226 30.8225 43.3399C29.2445 44.6789 27.9091 42.7312 26.2097 41.3922C24.5102 39.9315 19.2903 38.349 14.4346 41.5139C9.57895 44.6789 5.93719 44.8006 3.63074 42.0009C0.838728 38.4707 3.38796 34.0885 6.78693 32.6277C10.1859 31.167 15.163 32.2625 17.1053 33.3581C19.0475 34.4536 20.9898 34.3319 21.1112 32.2625C21.2326 30.1931 16.7411 27.0282 14.6774 24.837C12.6138 22.6459 8.48642 16.4377 8.8506 9.49917C9.21478 2.5606 12.8565 0.126019 15.6486 0.00429006C18.4406 -0.117439 24.3888 2.31714 24.7529 11.6903C25.1171 21.0634 23.9032 24.837 25.2385 26.663C26.5738 28.4889 29.0017 27.0282 28.8803 23.8632C28.7589 20.6983 27.545 16.5595 30.2156 14.7335C32.8862 12.9076 37.3777 17.2898 35.4354 24.7153C33.4932 32.1408 31.0653 32.8712 30.8225 36.7665Z" fill="url(#paint1_linear_234_3395)"/>
<path d="M48.5459 43.5821C47.8175 43.5821 47.2106 43.3387 46.8464 42.9735C46.4823 42.6083 46.2395 41.9997 46.2395 41.2693V12.7856C46.2395 12.0553 46.4823 11.4466 46.8464 11.0815C47.2106 10.7163 47.8175 10.4728 48.5459 10.4728C49.2742 10.4728 49.8811 10.7163 50.2453 11.0815C50.6095 11.4466 50.8522 12.0553 50.8522 12.7856V41.2693C50.8522 41.9997 50.6095 42.6083 50.2453 42.9735C49.7598 43.3387 49.2742 43.5821 48.5459 43.5821ZM48.1817 23.1323C48.3031 20.576 48.91 18.385 50.1239 16.4374C51.3378 14.4898 52.9158 12.9073 54.7367 11.8118C56.6789 10.7163 58.7425 10.1077 61.0488 10.1077C62.8697 10.1077 64.3263 10.3511 65.2974 10.838C66.2685 11.3249 66.6327 12.177 66.3899 13.1508C66.2685 13.7594 65.9044 14.1246 65.5402 14.3681C65.176 14.6115 64.6905 14.6115 64.2049 14.6115C63.7194 14.6115 62.9911 14.4898 62.3841 14.4898C60.0777 14.2463 58.1355 14.4898 56.4361 15.2201C54.7367 15.8288 53.28 16.9243 52.3089 18.2633C51.3378 19.6022 50.7309 21.3064 50.7309 23.1323H48.1817Z" fill="#1E1E1E"/>
<path d="M88.2409 43.9476C85.3276 43.9476 82.7785 43.339 80.5935 42.1217C78.2871 40.9045 76.5877 39.2003 75.2524 36.8875C73.9171 34.5747 73.3102 31.7751 73.3102 28.4885V12.7859C73.3102 12.1773 73.553 11.5687 73.9171 11.2035C74.4027 10.7166 74.8882 10.5949 75.4952 10.5949C76.2235 10.5949 76.7091 10.8383 77.1946 11.2035C77.6802 11.6904 77.8015 12.1773 77.8015 12.7859V28.4885C77.8015 31.0447 78.2871 32.9923 79.2582 34.6965C80.2293 36.2789 81.4432 37.4962 83.1426 38.3482C84.7207 39.2003 86.6629 39.5655 88.6051 39.5655C90.5473 39.5655 92.3681 39.2003 93.9462 38.47C95.5242 37.7396 96.7381 36.6441 97.7092 35.3051C98.6803 33.9661 99.0445 32.5054 99.0445 30.8013H102.322C102.201 33.3575 101.472 35.6703 100.258 37.6179C99.0445 39.5655 97.345 41.1479 95.16 42.3652C93.2178 43.339 90.7901 43.9476 88.2409 43.9476ZM101.472 43.5824C100.744 43.5824 100.258 43.339 99.7728 42.9738C99.4086 42.6086 99.1658 42 99.1658 41.2696V12.7859C99.1658 12.0556 99.4086 11.5687 99.7728 11.0818C100.137 10.7166 100.744 10.4731 101.472 10.4731C102.201 10.4731 102.686 10.7166 103.172 11.0818C103.657 11.4469 103.779 12.0556 103.779 12.7859V41.2696C103.779 42 103.536 42.6086 103.172 42.9738C102.686 43.339 102.201 43.5824 101.472 43.5824Z" fill="#1E1E1E"/>
<path d="M112.52 15.7072C111.913 15.7072 111.427 15.4638 111.063 15.0986C110.699 14.7334 110.456 14.2465 110.456 13.6378C110.456 13.0292 110.699 12.5423 111.063 12.1771C111.427 11.8119 111.913 11.5684 112.52 11.5684H127.937C128.543 11.5684 129.029 11.8119 129.393 12.1771C129.757 12.5423 130 13.0292 130 13.6378C130 14.2465 129.757 14.7334 129.393 15.0986C129.029 15.4638 128.543 15.7072 127.937 15.7072H112.52ZM127.572 43.5832C125.387 43.5832 123.566 43.0963 121.867 42.1225C120.167 41.1486 118.832 39.6879 117.861 37.9837C116.89 36.2794 116.404 34.2101 116.404 32.0189V2.31701C116.404 1.58663 116.647 1.09971 117.011 0.612796C117.375 0.12588 117.982 0.00415039 118.711 0.00415039C119.439 0.00415039 119.925 0.247609 120.41 0.612796C120.896 1.09971 121.017 1.58663 121.017 2.31701V31.8972C121.017 33.9666 121.624 35.6708 122.838 36.8881C124.052 38.2271 125.63 38.8358 127.451 38.8358H129.029C129.636 38.8358 130.243 39.0792 130.607 39.4444C130.971 39.9313 131.214 40.4182 131.214 41.1486C131.214 41.879 130.971 42.3659 130.486 42.8528C130 43.218 129.393 43.4615 128.665 43.4615H127.572V43.5832Z" fill="#1E1E1E"/>
<path d="M153.428 43.8254C150.272 43.8254 147.602 43.0951 145.053 41.6344C142.625 40.1737 140.683 38.1043 139.226 35.6698C137.769 33.1136 137.041 30.3139 137.041 27.0273C137.041 23.8625 137.769 20.9411 139.226 18.3848C140.683 15.8286 142.746 13.881 145.174 12.4203C147.723 10.9596 150.515 10.2292 153.793 10.2292C156.949 10.2292 159.862 10.9596 162.29 12.4203C164.839 13.881 166.781 15.9503 168.238 18.3848C169.694 20.9411 170.423 23.8625 170.544 27.0273L168.723 28.488C168.723 31.4094 167.995 33.9657 166.66 36.2785C165.324 38.5912 163.504 40.4171 161.197 41.7561C159.012 43.2168 156.342 43.8254 153.428 43.8254ZM153.914 39.6868C156.22 39.6868 158.284 39.1999 160.105 38.1043C161.926 37.0088 163.382 35.5481 164.475 33.6005C165.567 31.6529 166.053 29.5836 166.053 27.1491C166.053 24.7146 165.567 22.5235 164.475 20.6976C163.382 18.75 161.926 17.2893 160.105 16.1938C158.284 15.0983 156.22 14.4896 153.914 14.4896C151.608 14.4896 149.544 15.0983 147.723 16.1938C145.902 17.2893 144.446 18.75 143.353 20.6976C142.261 22.6452 141.775 24.7146 141.775 27.1491C141.775 29.5836 142.261 31.6529 143.353 33.6005C144.446 35.5481 145.902 37.0088 147.723 38.1043C149.544 39.0781 151.608 39.6868 153.914 39.6868ZM168.359 43.582C167.631 43.582 167.145 43.3385 166.66 42.9733C166.174 42.6082 166.053 41.9995 166.053 41.2692V30.9225L167.145 26.1753L170.666 27.0273V41.2692C170.666 41.9995 170.423 42.4864 170.059 42.9733C169.573 43.3385 169.087 43.582 168.359 43.582Z" fill="#1E1E1E"/>
<defs>
<linearGradient id="paint0_linear_234_3395" x1="11.8273" y1="38.9944" x2="11.8273" y2="1.42436" gradientUnits="userSpaceOnUse">
<stop stop-color="#C0E2FF"/>
<stop offset="0.338" stop-color="#D4D6FF"/>
<stop offset="0.6749" stop-color="#E1CEFF"/>
<stop offset="1" stop-color="#E5CCFF"/>
</linearGradient>
<linearGradient id="paint1_linear_234_3395" x1="1.79797" y1="11.5587" x2="32.2555" y2="41.9318" gradientUnits="userSpaceOnUse">
<stop stop-color="#6B32B5"/>
<stop offset="0.192" stop-color="#6736B8"/>
<stop offset="0.391" stop-color="#5C43C1"/>
<stop offset="0.5932" stop-color="#4957D0"/>
<stop offset="0.7966" stop-color="#2F74E5"/>
<stop offset="1" stop-color="#0D99FF"/>
</linearGradient>
</defs>
</svg>
