<svg width="20" height="19" viewBox="0 0 20 19" fill="none" xmlns="http://www.w3.org/2000/svg">
<path d="M18.6516 2.87003C18.4516 2.35003 18.2016 1.97003 17.8116 1.58003C17.4216 1.19003 17.0416 0.940029 16.5216 0.740029C16.1216 0.590029 15.5316 0.40003 14.4316 0.35003C13.2416 0.30003 12.8916 0.280029 9.89163 0.280029C6.89163 0.280029 6.53163 0.29003 5.35163 0.35003C4.25163 0.40003 3.66163 0.580029 3.26163 0.740029C2.74163 0.940029 2.36163 1.19003 1.97163 1.58003C1.58163 1.97003 1.33163 2.35003 1.13163 2.87003C0.981631 3.27003 0.791632 3.86003 0.741632 4.96003C0.691632 6.15003 0.671631 6.50003 0.671631 9.50003C0.671631 12.5 0.681632 12.86 0.741632 14.04C0.791632 15.14 0.971631 15.73 1.13163 16.13C1.33163 16.65 1.58163 17.03 1.97163 17.42C2.36163 17.81 2.74163 18.06 3.26163 18.26C3.66163 18.41 4.25163 18.6 5.35163 18.65C6.54163 18.7 6.89163 18.72 9.89163 18.72C12.8916 18.72 13.2516 18.71 14.4316 18.65C15.5316 18.6 16.1216 18.42 16.5216 18.26C17.0416 18.06 17.4216 17.81 17.8116 17.42C18.2016 17.03 18.4516 16.65 18.6516 16.13C18.8016 15.73 18.9916 15.14 19.0416 14.04C19.0916 12.85 19.1116 12.5 19.1116 9.50003C19.1116 6.50003 19.1016 6.14003 19.0416 4.96003C18.9916 3.86003 18.8116 3.27003 18.6516 2.87003ZM9.89163 15.27C6.70163 15.27 4.12163 12.69 4.12163 9.50003C4.12163 6.31003 6.70163 3.73003 9.89163 3.73003C13.0816 3.73003 15.6616 6.31003 15.6616 9.50003C15.6616 12.69 13.0816 15.27 9.89163 15.27ZM15.8916 4.85003C15.1516 4.85003 14.5416 4.25003 14.5416 3.50003C14.5416 2.75003 15.1416 2.15003 15.8916 2.15003C16.6416 2.15003 17.2416 2.75003 17.2416 3.50003C17.2416 4.25003 16.6416 4.85003 15.8916 4.85003Z" fill="#6B32B5"/>
</svg>
