<svg width="792" height="1117" viewBox="0 0 792 1117" fill="none" xmlns="http://www.w3.org/2000/svg">
<path d="M-88.8571 459.275L-88.8577 459.275C-176.102 482.677 -234.05 520.249 -265.395 571.4C-296.734 622.542 -301.638 687.518 -282.236 766.078C-261.987 848.169 -234.836 883.788 -198.395 906.45C-180.105 917.824 -159.427 925.965 -135.92 935.041C-135.029 935.385 -134.134 935.731 -133.235 936.078C-110.441 944.873 -85.0769 954.66 -56.9147 969.129C-36.6585 979.538 -15.595 993.617 6.77106 1008.91C9.38153 1010.7 12.0099 1012.5 14.6573 1014.31C34.7122 1028.06 55.8508 1042.55 78.4823 1056.15C129.706 1086.94 188.47 1113.11 259.167 1115.59C294.427 1116.84 320.335 1108.78 341.382 1095.13C362.465 1081.47 378.751 1062.15 394.687 1040.71C398.892 1035.05 403.071 1029.24 407.305 1023.36C435.118 984.727 465.344 942.74 521.119 917.113C648.235 858.706 644.696 740.808 588.597 695.302C574.164 683.595 562.832 667.53 552.954 648.894C543.076 630.26 534.612 608.975 525.958 586.789C525.344 585.213 524.728 583.632 524.111 582.047C507.324 538.953 489.386 492.904 458.708 455.73C395.11 378.716 306.128 346.616 185.709 358.788C124.13 365.013 79.4709 383.658 38.2305 403.987C30.2404 407.926 22.3723 411.932 14.5301 415.925C-18.0765 432.526 -50.2347 448.898 -88.8571 459.275Z" stroke="url(#paint0_linear_784_8640)" stroke-width="2.5611"/>
<path d="M543.52 760.977C554.344 810.566 504.881 860.781 430.948 867.304C357.016 873.827 298.009 886.42 208.884 954.145C119.759 1021.87 10.9713 981.477 -38.5932 899.688C-88.1577 817.898 -154.692 743.053 -222.555 658.321C-283.767 581.942 -303.652 391.406 -118.179 302.231C67.295 213.056 157.429 209.223 229.421 136.429C301.412 63.6357 384.858 31.14 464.692 64.5566C544.526 97.9731 628.155 263.896 532.781 349.325C437.406 434.753 385.012 526.713 430.12 608.89C463.647 670.011 522.776 665.965 543.494 760.917L543.52 760.977Z" fill="url(#paint1_linear_784_8640)"/>
<defs>
<linearGradient id="paint0_linear_784_8640" x1="627" y1="736" x2="-295" y2="736" gradientUnits="userSpaceOnUse">
<stop stop-color="#FFDD58"/>
<stop offset="1" stop-color="#D1BFE8"/>
</linearGradient>
<linearGradient id="paint1_linear_784_8640" x1="-204.3" y1="717.636" x2="638.792" y2="362.03" gradientUnits="userSpaceOnUse">
<stop stop-color="#D1BFE8"/>
<stop offset="0.33" stop-color="#CEC3EA"/>
<stop offset="0.67" stop-color="#C7CFF2"/>
<stop offset="1" stop-color="#BDE3FF"/>
</linearGradient>
</defs>
</svg>
