<svg width="323" height="198" viewBox="0 0 323 198" fill="none" xmlns="http://www.w3.org/2000/svg">
<path d="M305.697 99.0955L308.967 104.247L290.658 119.318L285.831 111.714L305.697 99.0955Z" fill="#FFB6B6"/>
<path d="M310.955 95.5012L321.013 111.344L320.813 111.471C319.178 112.509 317.197 112.856 315.307 112.434C313.417 112.012 311.772 110.856 310.733 109.221L306.701 107.721L305.468 100.927L304.59 99.5444L310.955 95.5012Z" fill="#2F2E41"/>
<path d="M116.064 44.017L114.595 35.4981L136.933 25.4082L141.757 16.8646C141.601 16.1149 141.656 15.3367 141.914 14.616C142.173 13.8953 142.626 13.26 143.223 12.7805C143.819 12.301 144.537 11.9959 145.296 11.8988C146.056 11.8017 146.827 11.9164 147.525 12.2303C148.224 12.5442 148.822 13.045 149.253 13.6775C149.685 14.31 149.933 15.0494 149.971 15.8142C150.009 16.579 149.834 17.3394 149.467 18.0113C149.1 18.6833 148.554 19.2406 147.891 19.6219L139.955 31.8944L116.064 44.017Z" fill="#A0616A"/>
<path d="M109.274 37.0528L119.333 31.9127L121.996 41.9145L115.009 47.0955L109.274 37.0528Z" fill="url(#paint0_linear_784_8487)"/>
<path d="M14.4995 113.927L13.0816 119.844L35.2215 128.13L37.3139 119.398L14.4995 113.927Z" fill="#A0616A"/>
<path d="M12.5582 121.685L16.5681 122.646L16.8459 121.068L17.9886 114.647L18.2499 113.16L5.08884 108.819L4.38324 108.586L3.37624 112.787L4.05885 113.093L7.16249 114.483L3.53497 115.279L2.73728 115.453L0.0675492 126.59C-0.0871238 127.254 0.0262208 127.952 0.382992 128.533C0.739764 129.114 1.31114 129.53 1.97305 129.692C4.05529 130.688 11.0203 122.564 12.5582 121.685Z" fill="#2F2E41"/>
<path d="M96.1046 55.1789L88.2755 51.5181L72.6627 70.4177L63.1528 72.8235C62.4707 72.4758 61.7059 72.3234 60.9427 72.3832C60.1795 72.4429 59.4477 72.7126 58.8281 73.1623C58.2085 73.6119 57.7252 74.2242 57.4316 74.9314C57.138 75.6386 57.0456 76.4132 57.1645 77.1696C57.2834 77.9261 57.609 78.6349 58.1053 79.2179C58.6017 79.8008 59.2494 80.2352 59.9771 80.473C60.7048 80.7109 61.484 80.7429 62.2287 80.5655C62.9734 80.3882 63.6546 80.0084 64.1971 79.4681L78.1227 75.0414L96.1046 55.1789Z" fill="#A0616A"/>
<path d="M165.213 86.8315C163.554 86.8315 161.932 86.3393 160.552 85.417C159.172 84.4948 158.096 83.1839 157.461 81.6503C156.826 80.1167 156.66 78.4291 156.984 76.801C157.308 75.1729 158.107 73.6774 159.28 72.5036C160.454 71.3298 161.949 70.5304 163.576 70.2066C165.204 69.8827 166.891 70.0489 168.424 70.6842C169.958 71.3194 171.268 72.3952 172.19 73.7754C173.112 75.1557 173.604 76.7784 173.604 78.4384C173.602 80.6636 172.717 82.797 171.144 84.3705C169.571 85.944 167.438 86.829 165.213 86.8315ZM165.213 71.0085C163.744 71.0085 162.308 71.4442 161.087 72.2607C159.865 73.0771 158.913 74.2375 158.351 75.5951C157.789 76.9527 157.642 78.4466 157.928 79.8879C158.215 81.3292 158.922 82.6531 159.961 83.6922C161 84.7312 162.323 85.4389 163.764 85.7256C165.205 86.0122 166.699 85.8651 168.056 85.3027C169.413 84.7404 170.573 83.7881 171.389 82.5662C172.206 81.3444 172.641 79.9079 172.641 78.4384C172.639 76.4685 171.856 74.58 170.463 73.1871C169.071 71.7942 167.183 71.0107 165.213 71.0085Z" fill="#E6E6E6"/>
<path d="M164.621 81.6006C164.604 81.6006 164.587 81.6 164.571 81.5992C164.422 81.592 164.276 81.5527 164.144 81.4839C164.011 81.4151 163.895 81.3185 163.804 81.2007L162.482 79.5009C162.399 79.3936 162.337 79.271 162.301 79.1399C162.265 79.0088 162.255 78.8719 162.272 78.737C162.289 78.6021 162.332 78.4718 162.399 78.3537C162.466 78.2355 162.556 78.1317 162.663 78.0482L162.711 78.0112C162.818 77.9277 162.941 77.8661 163.072 77.83C163.203 77.7939 163.34 77.784 163.475 77.8009C163.61 77.8178 163.74 77.861 163.858 77.9283C163.976 77.9955 164.08 78.0854 164.164 78.1928C164.23 78.2785 164.315 78.3488 164.411 78.3989C164.508 78.449 164.614 78.4777 164.722 78.4829C164.831 78.4882 164.939 78.47 165.04 78.4295C165.141 78.3891 165.232 78.3273 165.307 78.2485L167.99 75.4144C168.179 75.2154 168.439 75.0994 168.714 75.0919C168.988 75.0845 169.254 75.1861 169.453 75.3746L169.497 75.4166C169.596 75.5101 169.675 75.6221 169.731 75.7462C169.786 75.8703 169.817 76.0042 169.82 76.1401C169.824 76.276 169.801 76.4113 169.752 76.5382C169.704 76.6652 169.63 76.7813 169.537 76.88L165.372 81.2773C165.276 81.3794 165.159 81.4607 165.03 81.5163C164.901 81.5719 164.762 81.6006 164.621 81.6006Z" fill="#E6E6E6"/>
<path d="M140.431 118.038C120.974 118.038 98.6127 96.4405 78.8287 106.702C18.928 137.772 27.1736 85.7817 9.96465 66.4461L10.5296 65.3126C29.5178 82.3433 53.2251 96.1998 79.0888 105.384C102.462 113.684 126.009 117.529 147.178 116.515L147.215 117.877C144.979 117.985 142.718 118.039 140.431 118.038Z" fill="#F2F2F2"/>
<path d="M160.715 57.1167C158.855 58.3559 156.952 55.4064 158.848 54.2222C160.707 52.983 162.61 55.9325 160.715 57.1167Z" fill="#E6E6E6"/>
<path d="M138.117 88.8103C140.963 88.8103 143.27 86.5027 143.27 83.6561C143.27 80.8096 140.963 78.502 138.117 78.502C135.271 78.502 132.964 80.8096 132.964 83.6561C132.964 86.5027 135.271 88.8103 138.117 88.8103Z" fill="#F2F2F2"/>
<path d="M88.2115 85.6224C88.2115 85.6224 75.3659 93.9894 78.7626 99.5491C78.8797 99.7409 63.4186 120.167 63.4186 120.167L34.2316 118.313L33.2033 128.085L59.1876 135.613C59.1876 135.613 65.5444 140.284 70.4552 135.137C75.3659 129.99 91.7232 114.229 91.7232 114.229L92.5122 146.051L84.3009 190.147L96.5613 189.369L108.494 145.13L112.899 95.018L88.2115 85.6224Z" fill="#2F2E41"/>
<path d="M97.3617 35.4074L91.9599 39.5022L85.803 52.6467L91.7234 60.6897C91.7234 60.6897 96.7035 69.3231 88.7321 77.6839C80.7607 86.0448 74.6394 94.9746 81.0198 94.6558C87.4002 94.3369 113.241 107.484 113.411 96.713C113.582 85.9419 113.926 77.6839 113.926 77.6839L120.701 60.4953C120.701 60.4953 124.737 50.2414 121.903 47.172C119.069 44.1026 115.275 40.1804 115.275 40.1804L108.374 33.2782H102.144L97.3617 35.4074Z" fill="url(#paint1_linear_784_8487)"/>
<path d="M107.446 10.1516C119.565 17.0495 109.616 35.2495 97.2715 28.7686C85.1533 21.871 95.102 3.67094 107.446 10.1516Z" fill="#A0616A"/>
<path d="M113.926 13.9766C113.077 15.0813 111.303 14.5633 107.829 15.3516C107.836 14.1737 107.7 12.9992 107.423 11.8543C107.165 13.2719 106.599 14.6155 105.764 15.7902C102.747 16.1248 106.445 25.2919 104.901 32.0319C102.911 17.8128 98.7249 21.538 100.84 24.3584C102.193 26.1639 101.291 31.5805 97.2295 28.8722C90.5286 32.0578 80.9844 16.2335 91.5623 8.81217C91.3732 4.80073 95.8355 4.16705 98.5833 5.40037C105.252 0.431365 112.87 6.79837 113.926 13.9766Z" fill="#2F2E41"/>
<path d="M82.8322 3.60083C80.1342 20.1939 65.6729 0.549186 58.8733 16.8785C56.7354 22.792 60.4035 27.0223 62.7237 31.9308C63.2533 35.9646 58.007 38.0112 57.4575 41.7244C57.3045 50.2372 71.0346 49.7163 74.8729 44.3455C78.8168 38.7231 74.1072 31.1798 76.4778 25.145C79.8096 16.7665 93.3595 16.7043 94.54 6.9566C92.2538 3.70017 86.1065 -0.029475 82.8322 3.60083Z" fill="#2F2E41"/>
<path d="M93.7617 5.22227C93.6735 5.25945 93.5852 5.2966 93.5062 5.33843H93.5016C93.4273 5.37562 93.3529 5.41277 93.2786 5.4546C93.2693 5.45925 93.2647 5.46391 93.2554 5.46857C93.1578 5.37563 93.0603 5.28267 92.9581 5.18973C92.9316 5.3411 92.938 5.49638 92.9766 5.6451L92.9906 5.70089C93.0835 5.79846 93.1811 5.89141 93.2833 5.989C93.3762 5.91929 93.4645 5.84495 93.5573 5.77523C93.6131 5.72878 93.6689 5.68228 93.7293 5.63583C93.7385 5.51501 93.7525 5.37561 93.7664 5.22225L93.7617 5.22227ZM96.5583 0.0549989C94.4864 -0.418987 93.8175 2.29012 93.6177 3.59587C92.8651 -1.14389 89.7341 0.347753 90.8165 3.58191C91.1615 4.53944 91.7044 5.41347 92.4099 6.14696C92.5075 6.25848 92.6143 6.37 92.7258 6.48154C92.6004 7.13208 93.2322 6.96481 94.0869 6.36538C94.7181 5.91637 95.3018 5.40411 95.829 4.83656C97.5339 3.04756 98.8625 0.654425 96.5583 0.0549989ZM96.6234 2.72227C95.9842 3.54677 95.267 4.30772 94.4818 4.99458C94.2356 5.21761 93.9847 5.43136 93.7293 5.63583C93.7246 5.67764 93.7246 5.71481 93.7199 5.74735C93.702 5.79249 93.6802 5.83602 93.6549 5.87745C93.3947 6.34678 93.1021 6.09121 92.9906 5.70089C92.9813 5.68693 92.9674 5.67297 92.9581 5.65906C92.5868 5.27546 92.2639 4.84788 91.9965 4.38584C90.0778 1.0587 93.1671 -1.20431 93.0138 5.0085C92.9856 5.0655 92.9667 5.1267 92.9581 5.18973C92.9316 5.3411 92.938 5.49638 92.9766 5.6451L92.9906 5.70089C93.0835 5.79846 93.1811 5.89141 93.2833 5.989C93.3762 5.91929 93.4645 5.84495 93.5573 5.77523C93.6131 5.72878 93.6689 5.68228 93.7293 5.63583C93.7385 5.51501 93.7525 5.37561 93.7664 5.22225V5.21761C93.8872 3.97227 94.217 1.73249 94.8256 1.12376C96.1635 0.0968002 97.8962 1.20741 96.6234 2.72227ZM93.7617 5.22227C93.6735 5.25945 93.5852 5.2966 93.5062 5.33843H93.5016C93.4273 5.37562 93.3529 5.41277 93.2786 5.4546C93.2693 5.45925 93.2647 5.46391 93.2554 5.46857C93.1578 5.37563 93.0603 5.28267 92.9581 5.18973C92.9316 5.3411 92.938 5.49638 92.9766 5.6451L92.9906 5.70089C93.0835 5.79846 93.1811 5.89141 93.2833 5.989C93.3762 5.91929 93.4645 5.84495 93.5573 5.77523C93.6131 5.72878 93.6689 5.68228 93.7293 5.63583C93.7385 5.51501 93.7525 5.37561 93.7664 5.22225L93.7617 5.22227Z" fill="#2F2E41"/>
<path d="M205.77 96.7058L201.294 108.381L180.299 149.808L198.747 198L208.269 195.486L200.421 149.808L222.936 122.444L249.674 140.584C249.674 140.584 261.533 149.844 266.044 141.066C270.555 132.287 299.746 113.615 299.746 113.615L292.524 105.909L258.909 121.645L235.708 88.9792L205.77 96.7058Z" fill="#2F2E41"/>
<path d="M228.354 41.6336L220.987 33.7157L208.348 31.9766L192.863 42.8205L193.019 54.8234L200.674 83.107C200.674 83.107 197.758 103.427 205.903 103.224C214.047 103.02 218.486 98.9583 221.803 99.7851C225.121 100.612 239.221 104.131 240.115 100.445C241.009 96.7591 245.759 99.3982 245.55 95.9115C245.342 92.4248 232.691 67.2919 232.691 67.2919L235.836 42.1565L228.354 41.6336Z" fill="url(#paint2_linear_784_8487)"/>
<path d="M275.003 5.18634C275.069 5.84298 274.99 6.50608 274.772 7.12896C274.554 7.75183 274.202 8.31932 273.741 8.79145C273.28 9.26358 272.722 9.62887 272.104 9.86159C271.487 10.0943 270.826 10.1888 270.168 10.1384L253.225 42.3699L248.677 35.385L265.994 4.9655C266.152 3.86569 266.708 2.86203 267.556 2.14469C268.404 1.42735 269.486 1.04616 270.597 1.07338C271.707 1.10061 272.769 1.53434 273.581 2.29238C274.393 3.05042 274.899 4.08012 275.003 5.18634Z" fill="#FFB6B6"/>
<path d="M221.665 47.6267C221.665 47.6267 220.993 53.3599 227.446 54.7793C233.898 56.1986 251.775 45.981 254.706 44.4204C255.623 43.9317 256.869 41.5364 258.146 38.4764C258.72 37.1026 259.3 35.5949 259.86 34.0656C260.184 33.1807 261.736 32.9391 262.041 32.0615C262.345 31.1886 261.402 29.6795 261.677 28.8569C262.983 24.9522 263.908 21.8545 263.908 21.8545L259.631 13.8188C253.65 16.9819 250.582 23.949 248.326 31.9756L221.665 47.6267Z" fill="url(#paint3_linear_784_8487)"/>
<path d="M146.307 12.5879C146.407 13.2401 146.649 13.8624 147.016 14.4109C147.383 14.9594 147.866 15.4207 148.43 15.7624C148.995 16.1042 149.627 16.3179 150.283 16.3887C150.939 16.4595 151.602 16.3855 152.227 16.1721L176.694 43.1366L179.351 35.2353L154.973 10.1189C154.545 9.09364 153.756 8.26103 152.756 7.77886C151.755 7.29669 150.612 7.19847 149.544 7.5028C148.475 7.80713 147.556 8.49287 146.959 9.43009C146.363 10.3673 146.13 11.4909 146.307 12.5879Z" fill="#FFB6B6"/>
<path d="M208.566 40.3258C208.566 40.3258 210.651 45.7084 204.758 48.6979C198.866 51.6873 179.002 46.2699 175.774 45.4926C174.763 45.2492 172.958 43.2418 170.956 40.599C170.057 39.4126 169.118 38.0981 168.193 36.7577C167.658 35.982 166.095 36.1365 165.58 35.3633C165.068 34.5942 165.603 32.8972 165.13 32.1696C162.89 28.7159 161.219 25.9483 161.219 25.9483L163.349 17.0978C169.932 18.6629 174.645 24.6403 178.838 31.8468L208.566 40.3258Z" fill="url(#paint4_linear_784_8487)"/>
<path d="M214.919 29.962C221.561 29.962 226.944 24.5767 226.944 17.9336C226.944 11.2906 221.561 5.90527 214.919 5.90527C208.278 5.90527 202.894 11.2906 202.894 17.9336C202.894 24.5767 208.278 29.962 214.919 29.962Z" fill="#FFB6B6"/>
<path d="M228.646 11.0465C227.381 9.08903 225.007 7.78446 222.706 8.15104C222.492 6.68209 221.879 5.30008 220.934 4.15547C219.989 3.01086 218.748 2.14753 217.346 1.65949C215.945 1.17145 214.436 1.07741 212.985 1.38759C211.533 1.69778 210.195 2.4003 209.115 3.41868C208.76 3.16859 208.347 3.01445 207.914 2.97119C207.482 2.92793 207.046 2.99703 206.649 3.17176C205.857 3.53198 205.168 4.08518 204.645 4.78071C203.324 6.42782 202.475 8.40223 202.188 10.4938C201.9 12.5854 202.185 14.7158 203.012 16.6583C202.73 15.6357 203.755 14.6736 204.79 14.4441C205.825 14.2147 206.911 14.4317 207.961 14.2823C209.306 14.0908 210.516 13.3101 211.863 13.1344C213.006 13.06 214.152 13.2074 215.239 13.5683C216.326 13.9291 217.471 14.0829 218.614 14.0216C219.748 13.8869 221.209 18.1863 221.189 21.2146C221.186 21.7885 221.304 22.5253 221.865 22.6471C222.555 22.797 222.955 21.8438 223.612 21.584C223.915 21.4972 224.24 21.5314 224.518 21.6794C224.796 21.8273 225.006 22.0776 225.104 22.3773C225.186 22.682 225.195 23.0021 225.13 23.311C225.064 23.6198 224.925 23.9085 224.725 24.1529C224.321 24.6375 223.842 25.0536 223.305 25.3852L223.576 25.6104C223.833 25.882 224.176 26.0557 224.547 26.1018C224.918 26.1479 225.293 26.0635 225.609 25.863C226.229 25.4426 226.732 24.8703 227.069 24.2005C228.337 22.2384 229.244 20.0649 229.746 17.7829C230.17 15.4911 229.91 13.0039 228.646 11.0465Z" fill="#2F2E41"/>
<path d="M317.606 58.4874C302.095 70.2382 271.234 66.5259 261.656 86.6544C232.659 147.598 207.852 101.174 182.462 96.1532L182.229 94.9083C207.645 97.017 234.907 93.7452 261.068 85.4462C284.71 77.9471 305.803 66.7914 322.065 53.1978L322.917 54.2617C321.2 55.6978 319.429 57.1064 317.606 58.4874Z" fill="#F2F2F2"/>
<defs>
<linearGradient id="paint0_linear_784_8487" x1="109.274" y1="39.5041" x2="121.996" y2="39.5041" gradientUnits="userSpaceOnUse">
<stop stop-color="#6B32B5"/>
<stop offset="0.19" stop-color="#6736B7"/>
<stop offset="0.39" stop-color="#5B42C0"/>
<stop offset="0.59" stop-color="#4857CF"/>
<stop offset="0.8" stop-color="#2E74E4"/>
<stop offset="1" stop-color="#0D99FF"/>
</linearGradient>
<linearGradient id="paint1_linear_784_8487" x1="78.3632" y1="67.1197" x2="122.912" y2="67.1197" gradientUnits="userSpaceOnUse">
<stop stop-color="#6B32B5"/>
<stop offset="0.19" stop-color="#6736B7"/>
<stop offset="0.39" stop-color="#5B42C0"/>
<stop offset="0.59" stop-color="#4857CF"/>
<stop offset="0.8" stop-color="#2E74E4"/>
<stop offset="1" stop-color="#0D99FF"/>
</linearGradient>
<linearGradient id="paint2_linear_784_8487" x1="192.863" y1="67.6009" x2="245.557" y2="67.6009" gradientUnits="userSpaceOnUse">
<stop stop-color="#6B32B5"/>
<stop offset="0.19" stop-color="#6736B7"/>
<stop offset="0.39" stop-color="#5B42C0"/>
<stop offset="0.59" stop-color="#4857CF"/>
<stop offset="0.8" stop-color="#2E74E4"/>
<stop offset="1" stop-color="#0D99FF"/>
</linearGradient>
<linearGradient id="paint3_linear_784_8487" x1="221.645" y1="34.3665" x2="263.908" y2="34.3665" gradientUnits="userSpaceOnUse">
<stop stop-color="#6B32B5"/>
<stop offset="0.19" stop-color="#6736B7"/>
<stop offset="0.39" stop-color="#5B42C0"/>
<stop offset="0.59" stop-color="#4857CF"/>
<stop offset="0.8" stop-color="#2E74E4"/>
<stop offset="1" stop-color="#0D99FF"/>
</linearGradient>
<linearGradient id="paint4_linear_784_8487" x1="161.219" y1="33.3439" x2="208.924" y2="33.3439" gradientUnits="userSpaceOnUse">
<stop stop-color="#6B32B5"/>
<stop offset="0.19" stop-color="#6736B7"/>
<stop offset="0.39" stop-color="#5B42C0"/>
<stop offset="0.59" stop-color="#4857CF"/>
<stop offset="0.8" stop-color="#2E74E4"/>
<stop offset="1" stop-color="#0D99FF"/>
</linearGradient>
</defs>
</svg>
