<svg width="280" height="198" viewBox="0 0 280 198" fill="none" xmlns="http://www.w3.org/2000/svg">
<path d="M255.054 178.118C257.497 182.423 255.426 196.964 255.426 196.964C255.426 196.964 241.862 191.239 239.419 186.936C238.249 184.869 237.95 182.423 238.588 180.136C239.225 177.849 240.747 175.908 242.819 174.74C244.891 173.571 247.344 173.27 249.638 173.904C251.932 174.538 253.88 176.053 255.054 178.118Z" fill="#F1F1F1"/>
<path d="M255.621 196.945L255.333 197.006C252.558 183.858 242.866 174.942 242.769 174.854L242.967 174.637C243.065 174.726 252.826 183.702 255.621 196.945Z" fill="white"/>
<path d="M277.248 183.02C273.933 189.015 255.246 197.137 255.246 197.137C255.246 197.137 252.165 177.045 255.478 171.051C257.07 168.173 259.743 166.043 262.91 165.129C266.077 164.216 269.478 164.595 272.365 166.182C275.252 167.769 277.388 170.435 278.304 173.593C279.22 176.751 278.84 180.142 277.248 183.02Z" fill="#F1F1F1"/>
<path d="M255.41 197.355L255.13 197.06C268.652 184.255 272.153 166.395 272.187 166.217L272.587 166.292C272.553 166.472 269.031 184.457 255.41 197.355Z" fill="white"/>
<path d="M66.3494 88.6867L52.1717 70.5101L60.4167 64.1161L67.1298 72.7223L89.8078 48.8518L97.3914 56.0161L66.3494 88.6867Z" fill="white"/>
<path d="M278.913 198H149.363C149.273 198 149.187 197.964 149.123 197.901C149.059 197.837 149.023 197.751 149.023 197.661C149.023 197.571 149.059 197.485 149.123 197.421C149.187 197.358 149.273 197.322 149.363 197.322H278.913C279.003 197.322 279.09 197.358 279.154 197.421C279.217 197.485 279.253 197.571 279.253 197.661C279.253 197.751 279.217 197.837 279.154 197.901C279.09 197.964 279.003 198 278.913 198Z" fill="#CACACA"/>
<path d="M186.812 192.655L192.071 192.655L194.573 172.43L186.811 172.431L186.812 192.655Z" fill="#FFB8B8"/>
<path d="M185.471 190.944L195.827 190.943H195.827C197.578 190.943 199.256 191.637 200.494 192.871C201.732 194.105 202.427 195.779 202.427 197.524V197.738L185.471 197.738L185.471 190.944Z" fill="#2F2E41"/>
<path d="M204.493 192.655L209.751 192.655L212.253 172.43L204.492 172.431L204.493 192.655Z" fill="#FFB8B8"/>
<path d="M203.152 190.944L213.509 190.943H213.509C215.259 190.943 216.938 191.637 218.176 192.871C219.413 194.105 220.109 195.779 220.109 197.524V197.738L203.153 197.738L203.152 190.944Z" fill="#2F2E41"/>
<path d="M195.078 121.631L196.339 185.794L186.135 185.163L179.055 144.295L176.819 116.429L195.078 121.631Z" fill="#2F2E41"/>
<path d="M212.59 110.856L214.02 186.811L202.119 186.472L199.549 141.322L195.077 124.975L176.819 116.429L179.8 95.9951L206.628 95.6235L212.59 110.856Z" fill="#2F2E41"/>
<path d="M192.072 42.8656C197.112 42.8656 201.198 38.7918 201.198 33.7664C201.198 28.741 197.112 24.6671 192.072 24.6671C187.032 24.6671 182.946 28.741 182.946 33.7664C182.946 38.7918 187.032 42.8656 192.072 42.8656Z" fill="#FFB8B8"/>
<path d="M199.641 46.6989L201.039 48.8104L204.765 59.2132L201.784 99.7102L184.271 100.082L182.036 53.64L186.719 47.8031L199.641 46.6989Z" fill="#CCCCCC"/>
<path d="M174.956 54.7548L171.975 54.3833C171.975 54.3833 171.23 54.7548 170.857 57.3556C170.485 59.9563 166.013 82.9914 166.013 82.9914L171.975 111.228L178.682 102.311L174.584 86.7068L178.682 71.1024L174.956 54.7548Z" fill="#2F2E41"/>
<path d="M212.962 54.3833H215.198L220.787 84.4772L215.571 107.884L210.354 99.3387L211.844 90.0504L211.099 81.8768L208.491 77.0465L212.962 54.3833Z" fill="#2F2E41"/>
<path d="M197.464 33.7662L195.805 33.3526C195.805 33.3526 194.56 26.3213 191.657 27.1486C188.753 27.9758 181.287 28.803 181.287 25.4941C181.287 22.1853 188.338 19.2901 192.486 19.7037C196.634 20.1173 201.932 21.4894 203.271 27.5621C205.418 37.297 198.842 39.7559 198.842 39.7559L198.952 39.4015C199.255 38.4173 199.277 37.368 199.014 36.3722C198.751 35.3764 198.214 34.4737 197.464 33.7662Z" fill="#2F2E41"/>
<path d="M172.348 54.383L184.271 49.5531L187.066 47.5096L195.45 84.4773L199.362 46.395L214.826 54.383L209.609 79.6473L208.864 89.3072L211.099 97.1095C211.099 97.1095 218.924 102.682 216.316 108.627C213.708 114.572 210.727 114.943 210.727 114.943C210.727 114.943 198.058 103.054 197.313 100.082C196.568 97.1094 195.45 91.908 195.45 91.908C195.45 91.908 189.115 115.686 181.663 115.315C174.211 114.943 174.211 107.141 174.211 107.141L176.074 98.9671L179.055 90.4218L177.564 76.3035L172.348 54.383Z" fill="#2F2E41"/>
<path d="M81.9556 144.912C108.993 144.912 130.912 122.994 130.912 95.956C130.912 68.9183 108.993 47 81.9556 47C54.918 47 32.9996 68.9183 32.9996 95.956C32.9996 122.994 54.918 144.912 81.9556 144.912Z" fill="url(#paint0_linear_784_8420)"/>
<path d="M97.2623 91.5934H66.6594C63.6552 91.5934 61.2198 94.0288 61.2198 97.0329V117.714C61.2198 120.718 63.6552 123.154 66.6594 123.154H97.2623C100.266 123.154 102.702 120.718 102.702 117.714V97.0329C102.702 94.0288 100.266 91.5934 97.2623 91.5934Z" fill="white"/>
<path d="M81.9546 108.282C84.334 108.282 86.2628 106.353 86.2628 103.974C86.2628 101.595 84.334 99.6658 81.9546 99.6658C79.5753 99.6658 77.6465 101.595 77.6465 103.974C77.6465 106.353 79.5753 108.282 81.9546 108.282Z" fill="url(#paint1_linear_784_8420)"/>
<path d="M81.9654 104.333H81.9545C80.7048 104.333 79.6917 105.346 79.6917 106.596V112.819C79.6917 114.068 80.7048 115.081 81.9545 115.081H81.9654C83.2151 115.081 84.2282 114.068 84.2282 112.819V106.596C84.2282 105.346 83.2151 104.333 81.9654 104.333Z" fill="url(#paint2_linear_784_8420)"/>
<path d="M96.6534 95.9886H90.3435V83.445C90.3435 78.8214 86.5793 75.0681 81.9666 75.0681C77.3539 75.0681 73.5897 78.8322 73.5897 83.445V95.9886H67.2798V83.445C67.2798 75.3401 73.8726 68.7473 81.9775 68.7473C90.0824 68.7473 96.6752 75.3401 96.6752 83.445V95.9886H96.6534Z" fill="white"/>
<defs>
<linearGradient id="paint0_linear_784_8420" x1="32.9996" y1="95.956" x2="130.912" y2="95.956" gradientUnits="userSpaceOnUse">
<stop stop-color="#6B32B5"/>
<stop offset="0.19" stop-color="#6736B7"/>
<stop offset="0.39" stop-color="#5B42C0"/>
<stop offset="0.59" stop-color="#4857CF"/>
<stop offset="0.8" stop-color="#2E74E4"/>
<stop offset="1" stop-color="#0D99FF"/>
</linearGradient>
<linearGradient id="paint1_linear_784_8420" x1="77.6465" y1="103.974" x2="86.2628" y2="103.974" gradientUnits="userSpaceOnUse">
<stop stop-color="#6B32B5"/>
<stop offset="0.19" stop-color="#6736B7"/>
<stop offset="0.39" stop-color="#5B42C0"/>
<stop offset="0.59" stop-color="#4857CF"/>
<stop offset="0.8" stop-color="#2E74E4"/>
<stop offset="1" stop-color="#0D99FF"/>
</linearGradient>
<linearGradient id="paint2_linear_784_8420" x1="79.6917" y1="109.707" x2="84.2282" y2="109.707" gradientUnits="userSpaceOnUse">
<stop stop-color="#6B32B5"/>
<stop offset="0.19" stop-color="#6736B7"/>
<stop offset="0.39" stop-color="#5B42C0"/>
<stop offset="0.59" stop-color="#4857CF"/>
<stop offset="0.8" stop-color="#2E74E4"/>
<stop offset="1" stop-color="#0D99FF"/>
</linearGradient>
</defs>
</svg>
