<svg width="572" height="816" viewBox="0 0 572 816" fill="none" xmlns="http://www.w3.org/2000/svg">
<path d="M700.439 91.968C749.348 87.8415 790.352 139.704 786.158 209.052C781.964 278.399 785.675 334.627 837.817 425.363C889.959 516.098 836.023 612.179 750.884 648.396C665.745 684.614 584.849 737.399 494.318 790.236C412.706 837.901 227.847 833.626 168.798 650.973C109.748 468.32 118.797 384.267 59.3957 308.817C-0.00526223 233.368 -19.2867 152.101 23.9009 82.0417C67.0885 11.9829 237.42 -45.7972 305.596 52.8455C373.771 151.488 454.249 211.047 539.129 179.008C602.258 155.201 606.731 99.8787 700.378 91.9844L700.439 91.968Z" fill="url(#paint0_linear_784_8521)"/>
<defs>
<linearGradient id="paint0_linear_784_8521" x1="553.567" y1="780.378" x2="332.686" y2="-43.9619" gradientUnits="userSpaceOnUse">
<stop stop-color="#D1BFE8"/>
<stop offset="0.33" stop-color="#CEC3EA"/>
<stop offset="0.67" stop-color="#C7CFF2"/>
<stop offset="1" stop-color="#BDE3FF"/>
</linearGradient>
</defs>
</svg>