<svg width="42" height="42" viewBox="0 0 42 42" fill="none" xmlns="http://www.w3.org/2000/svg">
<path d="M20.5912 0.5C9.27119 0.5 0.0911865 9.68 0.0911865 21C0.0911865 32.32 9.27119 41.5 20.5912 41.5C31.9112 41.5 41.0912 32.32 41.0912 21C41.0912 9.68 31.9112 0.5 20.5912 0.5ZM15.5412 30.14H11.3012V16.43H15.5412V30.14ZM13.4012 14.64C12.0112 14.64 10.8912 13.51 10.8912 12.11C10.8912 10.71 12.0112 9.58 13.4012 9.58C14.7912 9.58 15.9112 10.71 15.9112 12.11C15.9112 13.51 14.7912 14.64 13.4012 14.64ZM31.4412 30.14H27.2212V22.95C27.2212 20.98 26.4712 19.88 24.9112 19.88C23.2112 19.88 22.3212 21.03 22.3212 22.95V30.14H18.2512V16.43H22.3212V18.28C22.3212 18.28 23.5412 16.02 26.4512 16.02C29.3612 16.02 31.4412 17.8 31.4412 21.47V30.15V30.14Z" fill="white"/>
</svg>
