<svg width="42" height="41" viewBox="0 0 42 41" fill="none" xmlns="http://www.w3.org/2000/svg">
<path d="M29.6516 13.87C29.4516 13.35 29.2016 12.97 28.8116 12.58C28.4216 12.19 28.0416 11.94 27.5216 11.74C27.1216 11.59 26.5316 11.4 25.4316 11.35C24.2416 11.3 23.8916 11.28 20.8916 11.28C17.8916 11.28 17.5316 11.29 16.3516 11.35C15.2516 11.4 14.6616 11.58 14.2616 11.74C13.7416 11.94 13.3616 12.19 12.9716 12.58C12.5816 12.97 12.3316 13.35 12.1316 13.87C11.9816 14.27 11.7916 14.86 11.7416 15.96C11.6916 17.15 11.6716 17.5 11.6716 20.5C11.6716 23.5 11.6816 23.86 11.7416 25.04C11.7916 26.14 11.9716 26.73 12.1316 27.13C12.3316 27.65 12.5816 28.03 12.9716 28.42C13.3616 28.81 13.7416 29.06 14.2616 29.26C14.6616 29.41 15.2516 29.6 16.3516 29.65C17.5416 29.7 17.8916 29.72 20.8916 29.72C23.8916 29.72 24.2516 29.71 25.4316 29.65C26.5316 29.6 27.1216 29.42 27.5216 29.26C28.0416 29.06 28.4216 28.81 28.8116 28.42C29.2016 28.03 29.4516 27.65 29.6516 27.13C29.8016 26.73 29.9916 26.14 30.0416 25.04C30.0916 23.85 30.1116 23.5 30.1116 20.5C30.1116 17.5 30.1016 17.14 30.0416 15.96C29.9916 14.86 29.8116 14.27 29.6516 13.87ZM20.8916 26.27C17.7016 26.27 15.1216 23.69 15.1216 20.5C15.1216 17.31 17.7016 14.73 20.8916 14.73C24.0816 14.73 26.6616 17.31 26.6616 20.5C26.6616 23.69 24.0816 26.27 20.8916 26.27ZM26.8916 15.85C26.1516 15.85 25.5416 15.25 25.5416 14.5C25.5416 13.75 26.1416 13.15 26.8916 13.15C27.6416 13.15 28.2416 13.75 28.2416 14.5C28.2416 15.25 27.6416 15.85 26.8916 15.85Z" fill="#6B32B5"/>
<path d="M20.8916 0C9.5716 0 0.391602 9.18 0.391602 20.5C0.391602 31.82 9.5716 41 20.8916 41C32.2116 41 41.3916 31.82 41.3916 20.5C41.3916 9.18 32.2116 0 20.8916 0ZM32.0616 25.13C32.0116 26.33 31.8216 27.14 31.5416 27.86C31.2516 28.6 30.8716 29.23 30.2416 29.85C29.6216 30.47 28.9916 30.86 28.2516 31.15C27.5416 31.43 26.7216 31.62 25.5216 31.67C24.3216 31.72 23.9416 31.74 20.8916 31.74C17.8416 31.74 17.4516 31.73 16.2616 31.67C15.0616 31.62 14.2516 31.43 13.5316 31.15C12.7916 30.86 12.1616 30.48 11.5416 29.85C10.9216 29.23 10.5316 28.6 10.2416 27.86C9.9616 27.15 9.7716 26.33 9.7216 25.13C9.6716 23.93 9.6516 23.55 9.6516 20.5C9.6516 17.45 9.6616 17.06 9.7216 15.87C9.7716 14.67 9.9616 13.86 10.2416 13.14C10.5316 12.4 10.9116 11.77 11.5416 11.15C12.1616 10.53 12.7916 10.14 13.5316 9.85C14.2416 9.57 15.0616 9.38 16.2616 9.33C17.4616 9.28 17.8416 9.26 20.8916 9.26C23.9416 9.26 24.3316 9.27 25.5216 9.33C26.7216 9.38 27.5316 9.57 28.2516 9.85C28.9916 10.14 29.6216 10.52 30.2416 11.15C30.8616 11.77 31.2516 12.4 31.5416 13.14C31.8216 13.85 32.0116 14.67 32.0616 15.87C32.1116 17.07 32.1316 17.45 32.1316 20.5C32.1316 23.55 32.1216 23.94 32.0616 25.13Z" fill="#6B32B5"/>
<path d="M20.8916 16.75C18.8216 16.75 17.1416 18.43 17.1416 20.5C17.1416 22.57 18.8216 24.25 20.8916 24.25C22.9616 24.25 24.6416 22.57 24.6416 20.5C24.6416 18.43 22.9616 16.75 20.8916 16.75Z" fill="#6B32B5"/>
</svg>
