<svg width="42" height="41" viewBox="0 0 42 41" fill="none" xmlns="http://www.w3.org/2000/svg">
<path d="M20.8916 0C9.5716 0 0.391602 9.18 0.391602 20.5C0.391602 31.82 9.5716 41 20.8916 41C32.2116 41 41.3916 31.82 41.3916 20.5C41.3916 9.18 32.2116 0 20.8916 0ZM15.8416 29.64H11.6016V15.93H15.8416V29.64ZM13.7016 14.14C12.3116 14.14 11.1916 13.01 11.1916 11.61C11.1916 10.21 12.3116 9.08 13.7016 9.08C15.0916 9.08 16.2116 10.21 16.2116 11.61C16.2116 13.01 15.0916 14.14 13.7016 14.14ZM31.7416 29.64H27.5216V22.45C27.5216 20.48 26.7716 19.38 25.2116 19.38C23.5116 19.38 22.6216 20.53 22.6216 22.45V29.64H18.5516V15.93H22.6216V17.78C22.6216 17.78 23.8416 15.52 26.7516 15.52C29.6616 15.52 31.7416 17.3 31.7416 20.97V29.65V29.64Z" fill="#6B32B5"/>
</svg>
