<svg width="170" height="198" viewBox="0 0 170 198" fill="none" xmlns="http://www.w3.org/2000/svg">
<path d="M164.506 72.9775H5.34907C3.93095 72.9759 2.57137 72.4126 1.56861 71.4113C0.565844 70.41 0.0017748 69.0524 0.000137329 67.6363V5.34124C0.0017748 3.92516 0.565844 2.56754 1.56861 1.56622C2.57137 0.564894 3.93095 0.00163512 5.34907 0H164.506C165.924 0.00163512 167.283 0.564894 168.286 1.56622C169.289 2.56754 169.853 3.92516 169.855 5.34124V67.6363C169.853 69.0524 169.289 70.41 168.286 71.4113C167.283 72.4126 165.924 72.9759 164.506 72.9775Z" fill="#F2F2F2"/>
<path d="M127.387 69.5709H30.6125C23.4011 69.5627 16.4873 66.6985 11.388 61.6066C6.28873 56.5146 3.42038 49.6108 3.41225 42.4097V30.5706C3.42038 23.3694 6.28871 16.4656 11.388 11.3736C16.4873 6.28161 23.401 3.41735 30.6125 3.40918H139.243C146.454 3.41735 153.368 6.28161 158.467 11.3736C163.566 16.4656 166.435 23.3694 166.443 30.5706C166.431 40.9105 162.313 50.8236 154.991 58.135C147.669 65.4465 137.741 69.5592 127.387 69.5709Z" fill="white"/>
<path d="M134.805 35.9396H38.4538C38.088 35.9396 37.7371 35.7945 37.4784 35.5361C37.2197 35.2778 37.0744 34.9274 37.0744 34.5621C37.0744 34.1967 37.2197 33.8464 37.4784 33.588C37.7371 33.3297 38.088 33.1846 38.4538 33.1846H134.805C135.171 33.1846 135.521 33.3297 135.78 33.588C136.039 33.8464 136.184 34.1967 136.184 34.5621C136.184 34.9274 136.039 35.2778 135.78 35.5361C135.521 35.7945 135.171 35.9396 134.805 35.9396Z" fill="#E6E6E6"/>
<path d="M134.805 50.6364H38.4538C38.088 50.6364 37.7371 50.4912 37.4784 50.2329C37.2197 49.9746 37.0744 49.6242 37.0744 49.2589C37.0744 48.8935 37.2197 48.5431 37.4784 48.2848C37.7371 48.0265 38.088 47.8813 38.4538 47.8813H134.805C135.171 47.8813 135.521 48.0265 135.78 48.2848C136.039 48.5431 136.184 48.8935 136.184 49.2589C136.184 49.6242 136.039 49.9746 135.78 50.2329C135.521 50.4912 135.171 50.6364 134.805 50.6364Z" fill="#E6E6E6"/>
<path d="M134.805 50.6364H38.4538C38.088 50.6364 37.7371 50.4912 37.4784 50.2329C37.2197 49.9746 37.0744 49.6242 37.0744 49.2589C37.0744 48.8935 37.2197 48.5431 37.4784 48.2848C37.7371 48.0265 38.088 47.8813 38.4538 47.8813H134.805C135.171 47.8813 135.521 48.0265 135.78 48.2848C136.039 48.5431 136.184 48.8935 136.184 49.2589C136.184 49.6242 136.039 49.9746 135.78 50.2329C135.521 50.4912 135.171 50.6364 134.805 50.6364Z" fill="#E6E6E6"/>
<path d="M95.6727 37.6263C95.688 38.0412 95.7943 38.4477 95.984 38.8172C96.1737 39.1867 96.4422 39.5102 96.7706 39.7648C97.0991 40.0195 97.4794 40.1991 97.8849 40.2911C98.2904 40.3831 98.7111 40.3852 99.1175 40.2973L104.378 48.9153L106.617 44.1709L101.278 36.7144C101.085 36.0425 100.652 35.4647 100.06 35.0905C99.4691 34.7163 98.7609 34.5717 98.0699 34.6841C97.379 34.7965 96.7533 35.1581 96.3115 35.7004C95.8697 36.2426 95.6424 36.9279 95.6727 37.6263Z" fill="#FFB6B6"/>
<path d="M135.152 62.3251L117.022 52.5053L111.303 47.1478C111.303 47.1478 108.817 46.4832 109.732 45.676C110.647 44.8688 108.04 44.0904 108.04 44.0904L104.97 41.2144L100.608 44.2965L101.87 46.2506C101.87 46.2506 101.783 49.4857 103.558 48.8633C105.333 48.2409 104.889 50.924 104.889 50.924L115.482 67.3213L135.152 62.3251Z" fill="#3F3D56"/>
<path d="M135.208 191.125H131.526L129.774 176.943H135.208V191.125Z" fill="#FFB6B6"/>
<path d="M137.152 197.495H134.511L134.04 195.006L132.833 197.495H125.829C125.494 197.495 125.167 197.388 124.896 197.189C124.626 196.991 124.426 196.711 124.326 196.391C124.226 196.071 124.232 195.727 124.341 195.411C124.451 195.094 124.659 194.82 124.935 194.63L130.528 190.773V188.256L136.41 188.606L137.152 197.495Z" fill="#2F2E41"/>
<path d="M105.759 191.125H102.077L100.324 176.943H105.759V191.125Z" fill="#FFB6B6"/>
<path d="M107.703 197.495H105.062L104.591 195.006L103.384 197.495H96.3802C96.0445 197.495 95.7176 197.388 95.4472 197.189C95.1768 196.991 94.977 196.711 94.8771 196.391C94.7772 196.071 94.7824 195.727 94.8919 195.411C95.0013 195.094 95.2094 194.82 95.4856 194.63L101.078 190.773V188.256L106.961 188.606L107.703 197.495Z" fill="#2F2E41"/>
<path d="M131.301 83.8691H112.717V104.996H131.301V83.8691Z" fill="#FFB6B6"/>
<path d="M113.145 94.29L110 98.0016L104.568 109.422L90.8794 141.943L87.9845 148.821L90.3223 160.98C90.3223 160.98 90.7007 169.546 90.7007 170.948C90.7007 173.803 93.0921 175.385 93.0921 175.385L94.8464 184.509L111.858 183.795C111.858 183.795 111.265 173.738 107.702 171.201C104.139 168.664 102.501 155.442 102.501 155.442L100.565 149.575L119.435 127.239L119.557 135.047L119.616 138.826C119.616 138.826 116.852 163.406 120.074 168.176C123.295 172.946 120.139 172.385 120.139 172.385L120.293 182.225L140.45 182.368L136.003 154.038C136.003 154.038 133.745 152.258 134.953 150.468C136.161 148.678 133.782 146.487 133.782 146.487L134.849 124.37C134.849 124.37 133.668 120.55 135.057 120.054C136.447 119.557 135.24 116.272 135.24 116.272L135.446 111.991L131.301 98.7153L113.145 94.29Z" fill="#2F2E41"/>
<path d="M131.587 83.8688L133.588 77.8733L135.018 75.8747L135.59 70.1647C135.59 54.7475 132.146 57.3148 132.146 57.3148L130.157 51.8924L121.008 51.6069L115.147 57.1743L110.286 58.8873L108.383 68.7629L111.859 79.3008L112.717 85.0109C111.08 88.0271 111.219 86.6004 112.574 88.8651L128.728 93.2905C134.446 95.289 134.446 90.1499 133.299 88.8651C132.153 87.5804 131.587 83.8688 131.587 83.8688Z" fill="#3F3D56"/>
<path d="M124.401 49.6905C129.085 49.6905 132.882 45.8985 132.882 41.221C132.882 36.5434 129.085 32.7515 124.401 32.7515C119.716 32.7515 115.919 36.5434 115.919 41.221C115.919 45.8985 119.716 49.6905 124.401 49.6905Z" fill="#FFB6B6"/>
<path d="M135.724 52.5265C135.804 52.6612 135.853 52.8121 135.866 52.968C135.879 53.124 135.857 53.2809 135.802 53.4272C135.746 53.5734 135.658 53.7053 135.544 53.8128C135.43 53.9203 135.293 54.0008 135.144 54.0483C134.006 54.4251 133.305 55.5243 132.488 56.4037C131.673 57.2802 130.36 58.0082 129.32 57.4115C128.282 56.8177 128.21 55.3016 127.341 54.4794C126.495 53.68 125.088 53.777 124.093 54.3852L124.063 54.4034C123.892 54.5153 123.691 54.5743 123.486 54.5734C123.281 54.5725 123.081 54.5116 122.91 54.3982C122.739 54.2848 122.605 54.124 122.525 53.9356C122.445 53.7471 122.422 53.5393 122.459 53.338C122.808 51.4865 123.156 49.6353 123.504 47.7843C122.589 49.9857 121.261 51.9917 119.59 53.6943C119.13 54.2245 118.547 54.6342 117.892 54.8877C117.297 55.0761 116.719 54.4623 116.142 54.5736C117.577 53.3202 122.403 45.2862 121.54 39.9158C120.525 40.03 119.51 40.1442 118.495 40.2584C118.385 39.7788 118.15 39.3366 117.815 38.9765C117.856 39.4434 117.796 39.9135 117.64 40.3555C117.217 40.4041 116.791 40.4497 116.368 40.4983C115.779 40.5639 115.138 40.621 114.632 40.3127C113.789 39.7988 113.763 38.5825 114.003 37.6232C114.707 34.8339 116.84 32.5013 119.45 31.2794C122.06 30.0603 122.832 32.7754 125.583 31.9075C131.015 30.1945 135.178 33.1237 136.645 38.5597C137.877 43.1192 136.982 47.9585 135.724 52.5265Z" fill="#2F2E41"/>
<path d="M159.205 197.68H148.82L148.775 197.599C148.642 197.358 148.514 197.103 148.394 196.842C147.325 194.555 146.872 191.939 146.473 189.631L146.173 187.892C146.137 187.681 146.164 187.464 146.252 187.269C146.339 187.074 146.483 186.91 146.665 186.797C146.847 186.684 147.058 186.628 147.272 186.636C147.486 186.644 147.693 186.715 147.866 186.841C149.444 187.988 151.023 189.134 152.603 190.278C153.201 190.713 153.884 191.216 154.538 191.759C154.601 191.453 154.667 191.146 154.733 190.843C154.779 190.634 154.886 190.444 155.041 190.296C155.195 190.148 155.391 190.049 155.602 190.013C155.813 189.976 156.03 190.004 156.225 190.091C156.421 190.179 156.586 190.322 156.699 190.504L157.914 192.454C158.8 193.877 159.583 195.28 159.423 196.793C159.424 196.812 159.423 196.83 159.419 196.848C159.387 197.097 159.328 197.341 159.243 197.577L159.205 197.68Z" fill="#F0F0F0"/>
<path d="M169.629 197.904L70.9383 198C70.8398 197.999 70.7455 197.96 70.676 197.89C70.6065 197.821 70.5675 197.726 70.5675 197.628C70.5675 197.529 70.6065 197.435 70.676 197.365C70.7455 197.296 70.8398 197.256 70.9383 197.256L169.629 197.16C169.728 197.16 169.822 197.2 169.891 197.269C169.961 197.339 170 197.433 170 197.532C170 197.63 169.961 197.724 169.891 197.794C169.822 197.864 169.728 197.903 169.629 197.904Z" fill="#CACACA"/>
<path d="M80.025 59.1901L69.1694 50.0358C68.7983 49.7222 68.567 49.2744 68.5262 48.7907C68.4853 48.307 68.6383 47.8269 68.9515 47.4556L70.9495 45.0931C71.2636 44.7226 71.712 44.4916 72.1964 44.4508C72.6808 44.41 73.1617 44.5628 73.5334 44.8756L84.389 54.0299C84.7601 54.3435 84.9914 54.7913 85.0322 55.275C85.0731 55.7587 84.9201 56.2388 84.6068 56.6101L82.6088 58.9726C82.2948 59.3431 81.8464 59.5741 81.3619 59.6149C80.8775 59.6557 80.3967 59.5029 80.025 59.1901Z" fill="#3F3D56"/>
<path d="M99.5001 32.5C99.5001 41.8888 91.889 49.5 82.5001 49.5C73.1113 49.5 65.5001 41.8888 65.5001 32.5C65.5001 23.1112 73.1113 15.5 82.5001 15.5C91.889 15.5 99.5001 23.1112 99.5001 32.5Z" fill="url(#paint0_linear_784_8453)" stroke="url(#paint1_linear_784_8453)"/>
<path d="M83.0633 23.6092C82.7236 23.3227 82.2163 23.3379 81.8945 23.6549C81.8944 23.655 81.8944 23.655 81.8943 23.655L80.5183 25.0156L80.5178 25.016C80.1287 25.3998 79.5927 25.5896 79.0543 25.5474L79.0523 25.5472L79.0523 25.5472L77.1217 25.3879C77.1213 25.3879 77.121 25.3879 77.1207 25.3879C76.6446 25.3512 76.229 25.7005 76.1846 26.1725C76.1845 26.1726 76.1845 26.1727 76.1845 26.1728L76.0057 28.1012L76.0054 28.1038L76.0054 28.1038C75.9527 28.6413 75.6729 29.1359 75.2244 29.4514C75.2241 29.4516 75.2238 29.4518 75.2235 29.4519L73.6438 30.5698C73.6435 30.57 73.6433 30.5702 73.6431 30.5703C73.2528 30.8493 73.1604 31.3848 73.4293 31.771L73.43 31.772L74.5344 33.3664L74.5348 33.367C74.8425 33.8126 74.9437 34.3746 74.8054 34.9017C74.8054 34.9018 74.8053 34.9019 74.8053 34.902L74.3155 36.7759L74.3152 36.7768C74.1946 37.2347 74.4653 37.7058 74.9245 37.8317L74.9246 37.8317L76.7944 38.3449C76.7945 38.3449 76.7947 38.3449 76.7949 38.345L76.7951 38.3451L76.6628 38.8272C77.0478 38.9322 77.3667 39.2006 77.5378 39.5622L83.0633 23.6092ZM83.0633 23.6092L83.1091 23.6545L84.4857 25.0156L84.4862 25.016C84.8724 25.397 85.4083 25.5947 85.953 25.5471C85.9535 25.5471 85.954 25.547 85.9545 25.547L87.8845 25.3878L87.8849 25.3877C88.3572 25.3484 88.7749 25.6979 88.8195 26.1728L88.9981 28.099C88.9981 28.0995 88.9982 28.1 88.9982 28.1005C89.0467 28.6443 89.3343 29.1382 89.7796 29.4513C89.7799 29.4515 89.7801 29.4517 89.7804 29.4519L91.3618 30.5709L91.362 30.5711C91.7469 30.8432 91.8434 31.3781 91.5732 31.7731C91.573 31.7734 91.5728 31.7737 91.5726 31.774L90.4696 33.3664L90.4692 33.367C90.1616 33.8125 90.0603 34.3745 90.1985 34.9015L83.0633 23.6092ZM78.8181 41.0983L77.9898 39.3484L88.2096 38.3449L88.3412 38.8272L88.2088 38.3451L88.2091 38.345C87.6825 38.4888 87.2473 38.8558 87.0142 39.3484L86.1859 41.0983L86.1855 41.0991C85.9843 41.5261 85.4748 41.7126 85.0417 41.5149C85.0415 41.5148 85.0414 41.5148 85.0413 41.5147L83.2816 40.7067C83.2813 40.7066 83.2811 40.7065 83.2809 40.7064C82.7865 40.478 82.2175 40.478 81.723 40.7064C81.7228 40.7065 81.7226 40.7066 81.7224 40.7067L79.9627 41.5147C79.9626 41.5148 79.9624 41.5148 79.9623 41.5149C79.5292 41.7126 79.0197 41.5261 78.8184 41.0991L78.8181 41.0983Z" fill="white" stroke="url(#paint2_linear_784_8453)"/>
<path d="M78.6269 32.0761L81.8625 34.8839L86.3736 30.1161" stroke="url(#paint3_linear_784_8453)" stroke-width="2.2" stroke-linecap="round" stroke-linejoin="round"/>
<path d="M69.7387 47.6462C69.5699 47.8462 69.4875 48.105 69.5095 48.3656C69.5315 48.6263 69.6562 48.8676 69.8561 49.0366L80.7117 58.1909C80.912 58.3594 81.1711 58.4417 81.4322 58.4198C81.6932 58.3978 81.9348 58.2733 82.1041 58.0737L84.1021 55.7112C84.2709 55.5111 84.3533 55.2524 84.3313 54.9917C84.3093 54.7311 84.1846 54.4898 83.9847 54.3208L73.1291 45.1664C72.9288 44.9979 72.6697 44.9156 72.4086 44.9376C72.1476 44.9596 71.9059 45.084 71.7367 45.2837L69.7387 47.6462Z" fill="white"/>
<path d="M76.1121 51.2051C76.0745 51.2578 76.025 51.3009 75.9677 51.3311C75.9105 51.3614 75.8469 51.3779 75.7821 51.3794L74.0765 51.4185C74.0217 51.4198 73.9672 51.4102 73.9161 51.3904C73.865 51.3707 73.8183 51.341 73.7786 51.3032C73.739 51.2654 73.7072 51.2202 73.6851 51.1701C73.663 51.12 73.6509 51.0661 73.6497 51.0114C73.6484 50.9567 73.658 50.9023 73.6778 50.8512C73.6976 50.8002 73.7272 50.7536 73.7651 50.714C73.803 50.6744 73.8483 50.6427 73.8984 50.6206C73.9486 50.5985 74.0026 50.5864 74.0574 50.5852L75.1732 50.5596L74.0743 47.6641C74.0354 47.5608 74.0391 47.4463 74.0846 47.3458C74.1301 47.2452 74.2137 47.1667 74.317 47.1276C74.4204 47.0885 74.535 47.0919 74.6359 47.1371C74.7367 47.1823 74.8155 47.2656 74.8549 47.3687L76.1629 50.815C76.1865 50.8774 76.1949 50.9445 76.1872 51.0107C76.1795 51.0769 76.1561 51.1403 76.1188 51.1956L76.1121 51.2051Z" fill="#6B32B5"/>
<path d="M76.3308 51.9325C76.7422 51.9928 77.1353 52.1425 77.4825 52.3709C77.8297 52.5994 78.1225 52.9011 78.3403 53.2548C78.5581 53.6085 78.6956 54.0056 78.7431 54.4181C78.7906 54.8306 78.7469 55.2485 78.6152 55.6423L86.6224 61.8015L81.6559 63.5082L74.8135 57.3976C74.1656 57.1328 73.6375 56.6398 73.3293 56.0122C73.0211 55.3845 72.9542 54.6658 73.1412 53.9921C73.3282 53.3185 73.7562 52.7367 74.3441 52.3571C74.9319 51.9775 75.6388 51.8264 76.3308 51.9325Z" fill="#FFB6B6"/>
<path d="M118.018 54.978L97.5167 67.5648C97.5167 67.5648 89.2509 64.5108 90.8663 63.0971C92.4817 61.6833 87.3391 60.7275 87.3391 60.7275L81.6581 56.9109L78.3615 60.7366C78.3615 60.7366 78.9621 66.9508 79.9842 65.8748C81.0062 64.7988 82.5339 67.7381 82.5339 67.7381C82.5339 67.7381 82.9853 71.0201 85.8947 70.1942C88.8041 69.3683 96.6107 78.0256 96.6107 78.0256L121.841 68.629L118.018 54.978Z" fill="#3F3D56"/>
<defs>
<linearGradient id="paint0_linear_784_8453" x1="65.0001" y1="32.5" x2="100" y2="32.5" gradientUnits="userSpaceOnUse">
<stop stop-color="#6B32B5"/>
<stop offset="0.19" stop-color="#6736B7"/>
<stop offset="0.39" stop-color="#5B42C0"/>
<stop offset="0.59" stop-color="#4857CF"/>
<stop offset="0.8" stop-color="#2E74E4"/>
<stop offset="1" stop-color="#0D99FF"/>
</linearGradient>
<linearGradient id="paint1_linear_784_8453" x1="65.0001" y1="32.5" x2="100" y2="32.5" gradientUnits="userSpaceOnUse">
<stop stop-color="#6B32B5"/>
<stop offset="0.19" stop-color="#6736B7"/>
<stop offset="0.39" stop-color="#5B42C0"/>
<stop offset="0.59" stop-color="#4857CF"/>
<stop offset="0.8" stop-color="#2E74E4"/>
<stop offset="1" stop-color="#0D99FF"/>
</linearGradient>
<linearGradient id="paint2_linear_784_8453" x1="72.7756" y1="32.4995" x2="92.2266" y2="32.4995" gradientUnits="userSpaceOnUse">
<stop stop-color="#6B32B5"/>
<stop offset="0.19" stop-color="#6736B7"/>
<stop offset="0.39" stop-color="#5B42C0"/>
<stop offset="0.59" stop-color="#4857CF"/>
<stop offset="0.8" stop-color="#2E74E4"/>
<stop offset="1" stop-color="#0D99FF"/>
</linearGradient>
<linearGradient id="paint3_linear_784_8453" x1="78.6269" y1="32.5" x2="86.3736" y2="32.5" gradientUnits="userSpaceOnUse">
<stop stop-color="#6B32B5"/>
<stop offset="0.19" stop-color="#6736B7"/>
<stop offset="0.39" stop-color="#5B42C0"/>
<stop offset="0.59" stop-color="#4857CF"/>
<stop offset="0.8" stop-color="#2E74E4"/>
<stop offset="1" stop-color="#0D99FF"/>
</linearGradient>
</defs>
</svg>
