<svg width="42" height="41" viewBox="0 0 42 41" fill="none" xmlns="http://www.w3.org/2000/svg">
<path fill-rule="evenodd" clip-rule="evenodd" d="M20.8916 41C32.2134 41 41.3916 31.8218 41.3916 20.5C41.3916 9.17816 32.2134 0 20.8916 0C9.56976 0 0.391602 9.17816 0.391602 20.5C0.391602 31.8218 9.56976 41 20.8916 41ZM31.3342 13.3229C32.4031 13.1871 33.4346 12.9029 34.3916 12.4706C33.6708 13.5453 32.7759 14.4841 31.7319 15.2253C31.7444 15.46 31.7444 15.6824 31.7444 15.9171C31.7444 22.9212 26.3629 31 16.5694 31C13.5618 31 10.753 30.1229 8.3916 28.6159C8.81416 28.6653 9.23673 28.69 9.65929 28.69C12.0629 28.7015 14.399 27.9 16.2836 26.4171C15.1718 26.3969 14.0943 26.031 13.2026 25.3707C12.3109 24.7104 11.6498 23.7889 11.3123 22.7359C12.1078 22.8917 12.9288 22.8621 13.7109 22.6494C11.275 22.1676 9.43558 20.0182 9.43558 17.4488V17.4118C10.1564 17.7824 10.9767 18.0294 11.8591 18.0294C10.4174 17.1029 9.48529 15.4724 9.48529 13.6318C9.48529 12.6682 9.74629 11.7541 10.2061 10.9759C12.8285 14.1753 16.7683 16.2876 21.1927 16.51C21.1058 16.1271 21.056 15.7194 21.056 15.2994C21.056 12.3718 23.4423 10 26.3629 10C27.9289 10 29.3084 10.6176 30.2903 11.68C31.4958 11.4329 32.6392 11.0006 33.6708 10.3829C33.2731 11.6306 32.4279 12.6682 31.3342 13.3229Z" fill="#6B32B5"/>
</svg>
